<svg xmlns="http://www.w3.org/2000/svg" id="svg" version="1.1" style="display: block;" viewBox="3.3 306.61 990.97 494.15"><path d="M0 0 C3.71909543 1.5461408 7.38926943 3.21538604 11 5 C13.000625 5.94875 15.00125 6.8975 17.0625 7.875 C22.76269265 10.8751014 27.88560643 14.08899316 33 18 C33 18.66 33 19.32 33 20 C34.98 20.99 34.98 20.99 37 22 C40.69638685 25.3003454 44.36030428 28.63723765 48 32 C52.84671029 36.29053042 57.75615688 40.49355398 62.6875 44.6875 C69.59866624 50.65354949 76.30534493 56.79349686 83 63 C84.98 64.65 86.96 66.3 89 68 C95.33721253 78.38386631 99.9000236 86.9251357 102 99 C102.66 100.98 103.32 102.96 104 105 C104.33 107.97 104.66 110.94 105 114 C107.0438896 121.15361358 109.38640609 128.03041625 112 135 C112.33 137.97 112.66 140.94 113 144 C113.66 145.98 114.32 147.96 115 150 C115.33 152.97 115.66 155.94 116 159 C118.65367291 168.63184981 122.26332902 177.74324689 126 187 C126 187.66 126 188.32 126 189 C134.10922427 184.20886746 134.10922427 184.20886746 141 178 C143.99001445 176.31548482 146.99032738 174.64913568 150 173 C153.96 170.03 153.96 170.03 158 167 C164.81647102 163.8074756 169.31116878 162.85431458 177 162 C179.495625 161.195625 181.99125 160.39125 184.5625 159.5625 C192.85257507 157.0447735 200.40242653 155.91882465 209 155 C215.33574434 154.01539108 221.66898685 153.01458544 228 152 C232.87670534 151.26666085 237.75346863 150.53369827 242.63085938 149.80493164 C247.77864209 149.03318557 252.92468455 148.25081379 258.0703125 147.46484375 C261.421875 146.95572917 264.7734375 146.44661458 268.125 145.9375 C269.79175781 145.68162109 271.45851563 145.42574219 273.17578125 145.16210938 C293.45965063 142.09190502 311.72805523 140.05656125 332.0625 143.5625 C342.18721345 146.32378549 351.23956844 150.15971229 360 156 C360 156.66 360 157.32 360 158 C361.32 158.33 362.64 158.66 364 159 C372.80605629 168.15829854 380.92204862 178.30532409 386 190 C388.71012407 198.13037221 389.08916836 202.70734265 389 211 C389.66 212.98 390.32 214.96 391 217 C391.33 219.97 391.66 222.94 392 226 C392.66 227.98 393.32 229.96 394 232 C394.5397115 236.05490055 395.01014982 240.11922287 395.4375 244.1875 C396.3142692 252.23946203 397.30528605 260.20717038 398.6875 268.1875 C399.90708548 276.37614534 400.52055095 283.74554919 400 292 C397.71331609 299.65159615 394.96525936 303.37965418 390 310 C383.37965418 314.96525936 379.65159615 317.71331609 372 320 C364.62487939 320.49167471 358.6582482 320.49556843 351.5625 318.375 C347 316 347 316 339 310 C334.06273219 303.41697625 331.46184002 299.54182738 329 292 C328.35191335 287.87214522 327.83853208 283.72163148 327.4375 279.5625 C326.59970847 271.47758284 325.68266034 263.46034365 324.375 255.4375 C323.43147878 249.64771071 322.64780956 243.83028603 322 238 C321.34 236.02 320.68 234.04 320 232 C319.67 229.03 319.34 226.06 319 223 C318.34 221.02 317.68 219.04 317 217 C308.9507946 217.47698995 301.23396808 218.5826653 293.3125 220.0625 C288 221 288 221 281.234375 221.33203125 C272.51569157 222.03928688 264.45881212 223.66058537 255.9375 225.625 C251.21759766 226.70394531 251.21759766 226.70394531 246.40234375 227.8046875 C237.93383262 229.78196347 229.46634754 231.7634827 221 233.75 C190.55905773 240.87620669 190.55905773 240.87620669 179.8125 241.25 C177.894375 241.4975 175.97625 241.745 174 242 C169.27654362 245.63371203 169.27654362 245.63371203 165 250 C161.37878214 252.08115969 157.71036484 254.08228334 154 256 C152.288125 257.03125 150.57625 258.0625 148.8125 259.125 C144.65161782 261.61072182 140.33513584 263.83243208 136 266 C131.2127099 268.54224382 126.43311035 271.09837227 121.65625 273.66015625 C117 276 117 276 109 279 C101.67202813 279.4347102 95.61640028 279.48306215 88.5625 277.375 C84 275 84 275 76 269 C71.02158324 262.36211098 68.44749092 258.60470393 66 251 C65.32783016 246.00073684 64.66125209 241.00071896 64 236 C62.77804794 232.294726 61.45661258 228.61946156 60 225 C57.15528771 216.46586313 54.99337224 209.94035012 54 201 C51.9561104 193.84638642 49.61359391 186.96958375 47 180 C46.67 177.03 46.34 174.06 46 171 C45.34 169.02 44.68 167.04 44 165 C43.67 162.03 43.34 159.06 43 156 C41.00865811 148.65263508 39.24082526 143.36123789 35 137 C29.18201635 131.92473766 23.42502666 127.28335111 17 123 C17 122.34 17 121.68 17 121 C15.68 120.34 14.36 119.68 13 119 C11.515 117.618125 10.03 116.23625 8.5 114.8125 C0.95711056 108.21247174 -6.32564206 103.96574037 -15.75 100.5625 C-22.21979791 98.67661917 -22.21979791 98.67661917 -30 99 C-38.42134813 101.73080536 -38.42134813 101.73080536 -46 108 C-53.99954864 119.17178345 -58.86859828 130.69154271 -62 144 C-63.50191542 148.76139145 -65.00475371 153.52252325 -66.52734375 158.27734375 C-68.56077606 164.79835082 -70.2671075 171.39334735 -72 178 C-73.45631163 183.17614763 -74.93818566 188.34447864 -76.42578125 193.51171875 C-77.47723527 197.17745794 -78.51626296 200.8467837 -79.54296875 204.51953125 C-82.34414293 214.50726539 -85.47518197 224.23896545 -89 234 C-93.89793761 250.26011444 -98.38174691 266.63749542 -102.91601562 283.00195312 C-103.81030273 286.21268555 -103.81030273 286.21268555 -104.72265625 289.48828125 C-105.25640869 291.41196533 -105.79016113 293.33564941 -106.34008789 295.31762695 C-107.55039978 299.46088468 -108.87568967 303.57105957 -110.26733398 307.65698242 C-110.83911377 309.42017822 -111.41089355 311.18337402 -112 313 C-111.67 313.33 -111.34 313.66 -111 314 C-104.71683534 315.06564687 -98.41762559 316.00703149 -92.1171875 316.96484375 C-86 318 -86 318 -79 320 C-74.33593531 320.68463335 -69.66907155 321.35039005 -65 322 C-59.17463052 323.07133232 -53.70726703 324.36935228 -48 326 C-44.535 326.7425 -44.535 326.7425 -41 327.5 C-36.29648693 328.50789566 -31.62520893 329.67851173 -27 331 C-23.54744025 331.69594905 -20.08842129 332.36029159 -16.625 333 C-10.04256125 334.21932295 -3.53960936 335.54675348 3 337 C5.02125 337.165 7.0425 337.33 9.125 337.5 C15 338 15 338 22 340 C24.371875 340.495 26.74375 340.99 29.1875 341.5 C36 343 36 343 40 345 C41.546875 345.12375 43.09375 345.2475 44.6875 345.375 C50 346 50 346 59 350 C66.46277689 351.49255538 73.39459751 351.28881275 81 351 C86.75946257 349.66194304 92.47306757 348.11208531 98.125 346.375 C101.15945313 345.4675 104.19390625 344.56 107.3203125 343.625 C110.18460937 342.75875 113.04890625 341.8925 116 341 C120.3251943 339.76284945 124.6573992 338.54959163 129 337.375 C130.69125 336.90835937 132.3825 336.44171875 134.125 335.9609375 C139.55392404 334.89081305 144.47814864 334.76334923 150 335 C159.31934058 337.1593594 166.43157786 341.17425414 174.1875 346.6875 C176.105625 348.110625 178.02375 349.53375 180 351 C188.98578584 357.44263891 197.97903249 363.87431424 207.078125 370.15625 C211 373 211 373 215.9375 377.625 C221.78342436 381.35459856 221.78342436 381.35459856 228.3125 381.89453125 C234.87528184 382.39465552 241.42560376 382.70670161 248 383 C249.32 383.33 250.64 383.66 252 384 C257.54166749 384.02061194 263.08355424 383.99118713 268.625 383.9375 C283.869391 383.89513766 298.83803711 384.46902185 314 386 C317.114375 386.309375 320.22875 386.61875 323.4375 386.9375 C329.89866895 387.84526754 335.73570646 389.26411143 342 391 C345.9957843 391.38055089 349.99564668 391.7238377 354 392 C354.66 392.33 355.32 392.66 356 393 C354.9676792 402.2908872 353.10529132 411.06697238 351.0625 420.1875 C350.35222656 423.37792969 349.64195312 426.56835938 348.91015625 429.85546875 C347 438 347 438 345 444 C344.34 444 343.68 444 343 444 C342.67 445.65 342.34 447.3 342 449 C338.08510847 455.78581198 334.55142345 461.44857655 329 467 C328.34 467 327.68 467 327 467 C326.67 467.99 326.34 468.98 326 470 C324.68 470.33 323.36 470.66 322 471 C321.34 472.32 320.68 473.64 320 475 C310.73838189 480.68045911 300.56385156 485.35903711 290 488 C272.65147108 488.75428387 257.41539152 487.75813096 240.9375 481.8125 C228.28986887 475.82151683 216.05976812 468.73874846 204.4375 460.9375 C200.06159263 458.04077259 195.58747366 455.54523477 191 453 C179.49820275 446.02921379 168.06444313 438.95165283 156.64453125 431.84765625 C149.4767394 427.45293778 144.34180803 424.85373512 136 423 C125.30400902 423 116.95963415 425.59617724 107 429 C104.586875 429.78375 102.17375 430.5675 99.6875 431.375 C91.46918688 434.18125326 83.31453171 437.136145 75.1640625 440.1328125 C68.14443814 442.67092176 61.06714318 444.97920344 53.9375 447.1875 C45.06580279 449.97929283 36.24434902 452.89346355 27.42578125 455.84765625 C23.2168951 457.25744122 19.00602255 458.66131285 14.79296875 460.05859375 C-0.49923647 465.13117552 -15.74966837 470.31879821 -30.98095703 475.57104492 C-38.61578979 478.19579255 -46.25124228 480.73345295 -54 483 C-56.083125 483.70125 -58.16625 484.4025 -60.3125 485.125 C-70.66967816 488.53945434 -80.69661504 488.22072253 -91.5 488.25 C-93.37171875 488.270625 -95.2434375 488.29125 -97.171875 488.3125 C-110.18712495 488.34916268 -121.04199275 486.76471445 -133.375 482.375 C-144.54668257 477.43015689 -154.23900556 471.32074583 -164 464 C-164 463.34 -164 462.68 -164 462 C-165.32 461.34 -166.64 460.68 -168 460 C-179.04531194 449.68135332 -186.98097009 438.35879886 -194 425 C-200.64463049 408.07499782 -203.84367627 392.40996601 -203.69140625 374.26953125 C-202.39552506 358.77020647 -198.72446035 343.67916183 -195.16674805 328.56225586 C-194.2277139 324.08558396 -193.44575977 319.57611361 -192.71484375 315.06079102 C-190.66769161 302.55734746 -187.9537359 290.19884009 -185.30078125 277.8125 C-184.16210857 272.45703142 -183.02343673 267.10156266 -181.88476562 261.74609375 C-180.10676329 253.40745545 -178.32726066 245.0691389 -176.54711914 236.73095703 C-170.69636944 209.3032699 -164.85589085 181.8880685 -159.69955444 154.32022095 C-156.51350508 137.28795858 -153.02501896 120.32668311 -149.4375 103.375 C-148.81681641 100.35988281 -148.19613281 97.34476562 -147.55664062 94.23828125 C-143.06238456 73.02764207 -137.29078931 56.43618396 -125.25 38.375 C-124.1775 36.93125 -123.105 35.4875 -122 34 C-121.34 34 -120.68 34 -120 34 C-119.67 32.68 -119.34 31.36 -119 30 C-117.35 28.35 -115.7 26.7 -114 25 C-113.01 25 -112.02 25 -111 25 C-110.34 23.68 -109.68 22.36 -109 21 C-95.49138574 10.13100002 -81.62157766 3.29180307 -65.0625 -1.6875 C-42.37110173 -7.47771887 -22.69562263 -6.14673113 0 0 Z M536.31103516 391.82299805 C538.68094635 391.81016281 541.05085754 391.79732758 543.49258423 391.78410339 C546.06542206 391.77671646 548.63825989 391.76932953 551.2890625 391.76171875 C555.2402858 391.74961113 555.2402858 391.74961113 559.27133179 391.73725891 C564.85487202 391.72340733 570.43842077 391.71269001 576.02197266 391.70483398 C584.56819667 391.68761445 593.11403473 391.6437327 601.66015625 391.59960938 C607.07812215 391.58948355 612.49609134 391.58096711 617.9140625 391.57421875 C621.75510117 391.54795662 621.75510117 391.54795662 625.67373657 391.52116394 C628.06256073 391.52408951 630.45138489 391.52701508 632.91259766 391.5300293 C635.01011383 391.52416306 637.10763 391.51829681 639.26870728 391.51225281 C645.37299712 392.03174298 649.52297058 393.29224027 655 396 C663 402 663 402 669 410 C671.50069952 415.27174493 672.94829176 419.29332078 673.375 425.125 C673.58125 426.73375 673.7875 428.3425 674 430 C675.98 432.64 677.96 435.28 680 438 C682.375 442.5625 682.375 442.5625 684 448 C684.49167471 455.37512061 684.49556843 461.3417518 682.375 468.4375 C680 473 680 473 674 481 C666 487 666 487 664 488 C660.32204163 488.10969691 656.64196119 488.14856416 652.96238708 488.16062927 C649.36810066 488.17569771 649.36810066 488.17569771 645.70120239 488.19107056 C641.7217305 488.19981705 641.7217305 488.19981705 637.66186523 488.20874023 C634.88650864 488.21852402 632.11115204 488.2283078 629.25169373 488.23838806 C620.02066535 488.26842795 610.78965153 488.28975023 601.55859375 488.30859375 C598.41634844 488.31516558 595.27410313 488.3217374 592.03663826 488.32850838 C578.83534321 488.35441294 565.63405033 488.37790352 552.4327383 488.39300442 C533.49584978 488.41491764 514.55924459 488.45689434 495.62246937 488.52644199 C480.71501418 488.57933726 465.80762191 488.59948153 450.9000721 488.60820198 C444.55218367 488.61679005 438.20430074 488.63568916 431.85647392 488.6649456 C422.98538774 488.7036332 414.11504624 488.70492148 405.24389648 488.69702148 C402.60508484 488.71702209 399.96627319 488.73702271 397.24749756 488.75762939 C394.83156784 488.74793625 392.41563812 488.7382431 389.92649841 488.72825623 C387.82832984 488.73248816 385.73016127 488.7367201 383.56841183 488.74108028 C378 488 378 488 373.12959385 485.39198399 C369 482 369 482 363 475 C359 467 359 467 358 463 C357.68198781 455.74932207 357.53778697 449.54663591 359.625 442.5625 C362 438 362 438 368 430 C374.56583183 425.07562613 378.41734038 422.32190909 386 420 C392.34735273 419.81473463 398.56611045 420.12830552 404.90625 420.4453125 C406.5871875 420.29835938 408.268125 420.15140625 410 420 C410.66 418.02 411.32 416.04 412 414 C416.19295629 408.51103903 419.82507848 405.10647397 425.75 401.5 C431 399 431 399 435 398 C444.47128319 397.94031488 453.93718103 397.97958983 463.40820312 398.0390625 C465.39142578 398.04679688 467.37464844 398.05453125 469.41796875 398.0625 C472.13696411 398.07990234 472.13696411 398.07990234 474.91088867 398.09765625 C481.98484455 397.96191231 488.27903373 397.24032209 495 395 C499.36861669 394.57426856 503.74535567 394.22866071 508.125 393.9375 C517.65590935 393.29466832 526.76355176 391.86790916 536.31103516 391.82299805 Z M759 418 C766.65159615 420.28668391 770.37965418 423.03474064 777 428 C781.96525936 434.62034582 784.71331609 438.34840385 787 446 C787.49167471 453.37512061 787.49556843 459.3417518 785.375 466.4375 C783 471 783 471 777 479 C769 485 769 485 763 488 C755.29243441 488.74255113 747.71346209 488.644579 740 488 C733.5625 485.5625 733.5625 485.5625 729 482 C723.36700668 476.44634462 720.59650785 472.19301569 717 465 C715.40090144 458.60360575 715.73952931 452.56386138 716 446 C718.28668391 438.34840385 721.03474064 434.62034582 726 428 C737.45945866 419.405406 744.5788495 417.03858997 759 418 Z " transform="translate(207,312)" style="fill: #86BD23;"/></svg>